<svg width="4404" height="2475" xmlns="http://www.w3.org/2000/svg" xmlns:xlink="http://www.w3.org/1999/xlink" xml:space="preserve" overflow="hidden"><defs><clipPath id="clip0"><rect x="-4" y="0" width="4404" height="2475"/></clipPath></defs><g clip-path="url(#clip0)" transform="translate(4 0)"><path d="M3315.15 2256.95C3318.9 2257.32 3322.68 2258.15 3326.51 2259.46 3355.22 2269.79 3364.33 2351.7 3359.29 2453.26L3357.83 2475 3140.46 2475 3154.92 2449.05C3216.99 2337.43 3258.84 2263.8 3304.01 2257.2 3307.7 2256.67 3311.41 2256.57 3315.15 2256.95ZM2277.86 310.38C2291.05 309.424 2301.48 316.333 2308.05 333.39 2325.55 378.874 2313.3 443.601 2285.3 569.557 2109.67 1338.71 1424.47 1889.23 1299.66 2430.61L1292.62 2475-4.00013 2475-4.00013 2393.61 118.566 2281.62C788.681 1693.23 1648.06 1244.03 2043.81 580.053 2112.05 466.343 2220.73 314.522 2277.86 310.38ZM4200.85 0 4400 0 4400 1603.33 4359.55 1595.87C4042.24 1524.2 3810.16 1281.98 3811.24 798.726 3811.62 540.688 3944.09 291.572 4155.69 49.0388ZM-4.00013 0 737.363 0 696.556 27.3596C485.319 171.901 272.893 335.243 70.5352 518.929L-4.00013 589.101Z" fill="#99D28C" fill-rule="evenodd"/></g></svg>